<svg width="24" height="24" viewBox="0 0 24 24" fill="none" xmlns="http://www.w3.org/2000/svg">
<path d="M16.3219 14.0397C16.3219 14.8282 16.5459 15.1427 17.1319 15.1427C18.4378 15.1427 19.2694 13.4765 19.2694 10.7056C19.2694 6.47027 16.1869 4.44274 12.3384 4.44274C8.37938 4.44274 4.77844 7.10106 4.77844 12.1248C4.77844 16.9233 7.92844 19.5366 12.7659 19.5366C14.4084 19.5366 15.5109 19.3564 17.1975 18.7932L17.5594 20.3016C15.8944 20.8432 14.115 21 12.7434 21C6.39844 21 3 17.5081 3 12.1239C3 6.69462 6.93844 3 12.3609 3C18.0084 3 21 6.37922 21 10.5244C21 14.0388 19.8984 16.7196 16.4334 16.7196C14.8575 16.7196 13.8234 16.0889 13.6884 14.6912C13.2834 16.2456 12.2034 16.7196 10.74 16.7196C8.7825 16.7196 7.14 15.2093 7.14 12.169C7.14 9.10513 8.58094 7.21277 11.1684 7.21277C12.5409 7.21277 13.3959 7.75344 13.7766 8.60951L14.43 7.41552H16.32V14.0397H16.3219ZM13.5553 11.066C13.5553 9.82791 12.6319 9.30882 11.8669 9.30882C11.0344 9.30882 10.1128 9.98373 10.1128 11.9671C10.1128 13.5441 10.8103 14.4227 11.8669 14.4227C12.6094 14.4227 13.5553 13.9496 13.5553 12.643V11.066Z" fill="#1E1E1E"/>
</svg>
