<svg width="20" height="20" viewBox="0 0 17 18" fill="none" xmlns="http://www.w3.org/2000/svg">
<g clip-path="url(#clip0_545_1444)">
<path d="M16.4922 9.05948C16.4922 8.38861 16.4377 7.89904 16.3199 7.39136H8.65918V10.4194H13.1559C13.0652 11.1719 12.5757 12.3051 11.4877 13.0666L11.4725 13.168L13.8947 15.0444L14.0625 15.0612C15.6037 13.6378 16.4922 11.5435 16.4922 9.05948Z" fill="#4285F4"/>
<path d="M8.65918 17.0376C10.8622 17.0376 12.7116 16.3123 14.0625 15.0612L11.4877 13.0666C10.7987 13.5471 9.87399 13.8826 8.65918 13.8826C6.50149 13.8826 4.67018 12.4593 4.01737 10.4919L3.92168 10.5001L1.40305 12.4493L1.37012 12.5408C2.71187 15.2062 5.46793 17.0376 8.65918 17.0376Z" fill="#34A853"/>
<path d="M4.01756 10.4919C3.84531 9.98422 3.74562 9.44022 3.74562 8.87816C3.74562 8.31603 3.84531 7.77209 4.0085 7.26441L4.00394 7.15628L1.45375 5.17578L1.37031 5.21547C0.817313 6.32153 0.5 7.56359 0.5 8.87816C0.5 10.1927 0.817313 11.4347 1.37031 12.5408L4.01756 10.4919Z" fill="#FBBC05"/>
<path d="M8.65918 3.87369C10.1913 3.87369 11.2248 4.5355 11.8141 5.08856L14.1169 2.84019C12.7026 1.52562 10.8622 0.71875 8.65918 0.71875C5.46793 0.71875 2.71187 2.55006 1.37012 5.21544L4.0083 7.26438C4.67018 5.29706 6.50149 3.87369 8.65918 3.87369Z" fill="#EB4335"/>
</g>
<defs>
<clipPath id="clip0_545_1444">
<rect width="16" height="16.375" fill="white" transform="translate(0.5 0.71875)"/>
</clipPath>
</defs>
</svg>
